<svg width="196" height="61" viewBox="0 0 196 61" fill="none" xmlns="http://www.w3.org/2000/svg">
<g clip-path="url(#clip0_4_2)">
<path d="M30.5 12.1523C30.6896 12.1523 30.8714 12.077 31.0055 11.943C31.1395 11.8089 31.2148 11.6271 31.2148 11.4375V3.8125C31.2148 3.62291 31.1395 3.44109 31.0055 3.30703C30.8714 3.17297 30.6896 3.09766 30.5 3.09766C30.3104 3.09766 30.1286 3.17297 29.9945 3.30703C29.8605 3.44109 29.7852 3.62291 29.7852 3.8125V11.4375C29.7852 11.6271 29.8605 11.8089 29.9945 11.943C30.1286 12.077 30.3104 12.1523 30.5 12.1523Z" fill="#F02E06"/>
<path d="M59.9452 36.555C59.8184 32.7816 59.7308 30.1767 57.7311 28.1842C55.9154 26.3732 53.5035 26.0439 52.3183 25.9734C54.1222 29.6854 55.0542 33.7604 55.0433 37.8874L55.0261 43.1635C55.0213 44.4564 54.9097 45.7467 54.6925 47.0212C56.0791 46.7125 57.3429 45.9994 58.3239 44.972C60.1611 42.9709 60.0753 40.4228 59.9452 36.555Z" fill="#F02E06"/>
<path d="M5.95706 43.1627L5.93991 37.8867C5.929 33.7597 6.86103 29.6846 8.66489 25.9727C7.47968 26.0432 5.0678 26.3739 3.25209 28.1834C1.25053 30.1759 1.16475 32.7808 1.03799 36.5543C0.907883 40.422 0.822102 42.9702 2.66116 44.9727C3.64211 45.9999 4.90572 46.7131 6.29209 47.0219C6.07462 45.7469 5.96257 44.4562 5.95706 43.1627Z" fill="#F02E06"/>
<path d="M30.5082 11.4375C16.6102 11.4375 5.83225 24.4067 5.95663 37.8867L5.97379 43.1623C6.01573 56.0528 16.4772 60.2852 29.3682 60.2852H31.6481C44.5391 60.2852 54.9997 56.0528 55.0426 43.1623L55.0597 37.8867C55.1855 24.4067 44.4062 11.4375 30.5082 11.4375Z" fill="#FF4910"/>
<path d="M30.4998 17.6328C18.834 17.6328 10.5318 27.7631 11.7609 39.2559C11.9782 41.3593 12.9659 43.308 14.5338 44.7269C16.1017 46.1458 18.1391 46.9346 20.2537 46.9414C25.3768 46.9271 25.3768 44.082 30.4998 44.082C35.6229 44.082 35.6229 46.9271 40.7459 46.9414C42.8605 46.9346 44.8979 46.1458 46.4658 44.7269C48.0338 43.308 49.0214 41.3593 49.2387 39.2559C50.4678 27.7631 42.1656 17.6328 30.4998 17.6328Z" fill="#FFA270"/>
<path d="M34.8965 35.1464C34.4885 34.7546 33.9439 34.5372 33.3782 34.5404C32.8126 34.5436 32.2705 34.7672 31.867 35.1636C31.7072 35.369 31.5027 35.5352 31.269 35.6497C31.0352 35.7642 30.7785 35.8238 30.5183 35.8241C30.258 35.8244 30.0012 35.7653 29.7672 35.6513C29.5333 35.5373 29.3284 35.3715 29.1682 35.1664C28.7688 34.7613 28.2249 34.5315 27.6561 34.5274C27.0873 34.5233 26.5402 34.7454 26.1351 35.1447C25.73 35.5441 25.5002 36.088 25.4961 36.6568C25.492 37.2256 25.7141 37.7727 26.1134 38.1778C26.6743 38.7858 27.355 39.271 28.1127 39.6028C28.8703 39.9347 29.6885 40.106 30.5157 40.106C31.3428 40.106 32.161 39.9347 32.9187 39.6028C33.6763 39.271 34.357 38.7858 34.9179 38.1778C35.3136 37.7712 35.5332 37.2251 35.5292 36.6577C35.5251 36.0903 35.2978 35.5474 34.8965 35.1464Z" fill="#F02E06"/>
<path d="M40.7462 28.437C40.7527 28.1497 40.7022 27.864 40.5978 27.5963C40.4933 27.3286 40.3369 27.0842 40.1375 26.8773C39.9382 26.6703 39.6998 26.5049 39.4362 26.3906C39.1726 26.2762 38.8889 26.2151 38.6016 26.2109C38.0334 26.2128 37.4891 26.4394 37.0873 26.8411C36.6855 27.2429 36.459 27.7873 36.4571 28.3555V31.6914C36.4591 32.2596 36.6857 32.8039 37.0874 33.2056C37.4892 33.6073 38.0335 33.8339 38.6016 33.8359C38.8889 33.8317 39.1725 33.7706 39.4361 33.6562C39.6997 33.5418 39.938 33.3764 40.1374 33.1695C40.3367 32.9625 40.4932 32.7182 40.5976 32.4505C40.7021 32.1829 40.7526 31.8972 40.7462 31.6099C40.7462 30.8164 40.7433 29.2304 40.7462 28.437Z" fill="#F02E06"/>
<path d="M22.399 26.2109C22.1117 26.2152 21.8281 26.2763 21.5645 26.3907C21.301 26.5051 21.0626 26.6705 20.8633 26.8774C20.6639 27.0843 20.5075 27.3287 20.403 27.5963C20.2985 27.864 20.2481 28.1497 20.2545 28.437C20.2569 29.2304 20.2569 30.8164 20.2545 31.6099C20.2481 31.8972 20.2985 32.1829 20.403 32.4505C20.5075 32.7182 20.6639 32.9625 20.8633 33.1695C21.0626 33.3764 21.301 33.5418 21.5645 33.6562C21.8281 33.7706 22.1117 33.8317 22.399 33.8359C22.9672 33.8339 23.5115 33.6073 23.9132 33.2056C24.315 32.8039 24.5416 32.2596 24.5436 31.6914V28.3555C24.5416 27.7873 24.315 27.243 23.9132 26.8413C23.5115 26.4395 22.9672 26.2129 22.399 26.2109Z" fill="#F02E06"/>
<path d="M30.5 54.3281C32.0792 54.3281 33.3594 53.0479 33.3594 51.4688C33.3594 49.8896 32.0792 48.6094 30.5 48.6094C28.9208 48.6094 27.6406 49.8896 27.6406 51.4688C27.6406 53.0479 28.9208 54.3281 30.5 54.3281Z" fill="#F02E06"/>
<path d="M30.5 6.67188C32.145 6.67188 33.4785 5.33835 33.4785 3.69336C33.4785 2.04837 32.145 0.714844 30.5 0.714844C28.855 0.714844 27.5215 2.04837 27.5215 3.69336C27.5215 5.33835 28.855 6.67188 30.5 6.67188Z" fill="#FF4910"/>
<path d="M58.891 15.5887C59.4209 15.5887 59.9508 15.1645 59.9508 14.5281C59.9508 13.8918 59.4209 13.4675 58.891 13.4675C58.3611 13.4675 57.8312 13.8918 57.8312 14.5281C57.8312 15.1645 58.3611 15.5887 58.891 15.5887Z" fill="#FF4910"/>
</g>
<path d="M98.2433 17.3101H105.023V41.8406C105.023 48.9283 99.7329 54.0053 91.6172 54.0053C85.248 54.0053 81.2415 51.14 79.0842 47.3197L84.9911 45.2588C86.3266 47.3197 88.4839 48.5261 91.7713 48.5261C96.0346 48.5261 98.1919 45.6106 98.2433 41.8406V38.7743C96.2914 41.1368 93.4663 42.4438 90.0249 42.4438C82.577 42.4438 77.1837 36.7636 77.1837 29.5251C77.1837 21.8845 82.577 16.6064 90.0249 16.6064C93.4663 16.6064 96.2914 17.9134 98.2433 20.2759V17.3101ZM91.2063 36.462C95.3668 36.462 98.3974 33.647 98.3974 29.5251C98.3974 25.4534 95.3668 22.5882 91.2063 22.5882C86.8916 22.5882 83.9125 25.4032 83.9125 29.5251C83.9125 33.647 86.8916 36.462 91.2063 36.462ZM120.754 43.4491C112.741 43.4491 106.834 37.6181 106.834 30.0278C106.834 22.3871 112.741 16.6064 120.754 16.6064C128.767 16.6064 134.622 22.3871 134.622 30.0278C134.622 37.6181 128.767 43.4491 120.754 43.4491ZM120.754 37.4171C125.069 37.4171 128.048 34.2502 128.048 30.0278C128.048 25.8053 125.069 22.6385 120.754 22.6385C116.388 22.6385 113.46 25.8053 113.46 30.0278C113.46 34.2502 116.388 37.4171 120.754 37.4171ZM153.846 42.7454L146.295 32.9433L143.265 36.2609V42.7454H136.484V6.05027H143.265V27.816L152.613 17.3101H160.523L150.558 28.2684L161.551 42.7454H153.846ZM172.864 43.4491C164.543 43.4491 158.738 38.0705 158.738 30.0278C158.738 22.4374 164.183 16.6064 172.35 16.6064C180.877 16.6064 185.756 22.3871 185.756 29.6759C185.756 30.4802 185.756 31.2342 185.602 32.0385H165.416C165.878 35.3058 168.241 37.8192 172.966 37.8192C176.254 37.8192 178.257 36.3615 179.284 34.4513L185.397 36.2106C183.907 39.5283 179.695 43.4491 172.864 43.4491ZM165.416 27.8663H179.13C178.822 24.7497 176.357 22.2363 172.299 22.2363C168.344 22.2363 165.775 24.9508 165.416 27.8663ZM191.06 13.7412C188.8 13.7412 187.002 12.0321 187.002 9.82032C187.002 7.70909 188.8 6 191.06 6C193.32 6 195.118 7.70909 195.118 9.82032C195.118 12.0321 193.32 13.7412 191.06 13.7412ZM187.567 42.7454V17.3101H194.398V42.7454H187.567Z" fill="#FF4910"/>
<defs>
<clipPath id="clip0_4_2">
<rect width="61" height="61" fill="white"/>
</clipPath>
</defs>
</svg>
