<?xml version="1.0" encoding="UTF-8"?>
<svg version="1.1" xmlns="http://www.w3.org/2000/svg" width="2013" height="993">
<path d="M0 0 C50.32536751 -0.90881025 97.1813908 12.83604383 133.7109375 48 C171.12625187 86.38399565 187.49320955 143.17707926 187.7265625 195.72265625 C187.73357681 196.78731613 187.74059113 197.85197601 187.74781799 198.94889832 C187.76520852 202.36180915 187.77166922 205.7745465 187.7734375 209.1875 C187.77411224 210.35317505 187.77478699 211.5188501 187.77548218 212.71984863 C187.75985567 229.69286854 187.49301293 246.36668648 184.5234375 263.125 C184.34119629 264.15850586 184.15895508 265.19201172 183.97119141 266.25683594 C182.69299891 273.26393633 181.20163246 280.20325201 179.5234375 287.125 C179.24959229 288.26340332 179.24959229 288.26340332 178.97021484 289.42480469 C171.1673319 320.85248279 154.8531845 349.7802645 132.5234375 373.125 C131.9046875 373.7953125 131.2859375 374.465625 130.6484375 375.15625 C102.59611473 404.61118891 59.22404358 418.08733263 19.51953125 420.03125 C17.54146484 420.07765625 17.54146484 420.07765625 15.5234375 420.125 C14.57227051 420.15078125 13.62110352 420.1765625 12.64111328 420.203125 C-24.3656974 421.08726562 -63.5719343 417.79548399 -91.9921875 391.53125 C-92.81203125 390.7371875 -93.631875 389.943125 -94.4765625 389.125 C-95.01498779 388.60848877 -95.55341309 388.09197754 -96.1081543 387.55981445 C-105.62058777 378.27820799 -113.49372598 367.45728538 -119.9765625 355.875 C-120.36110596 355.19203857 -120.74564941 354.50907715 -121.1418457 353.80541992 C-124.60259128 347.38286364 -126.80011815 341.08375531 -129.4765625 334.125 C-129.8065625 407.055 -130.1365625 479.985 -130.4765625 555.125 C-168.4265625 555.125 -206.3765625 555.125 -245.4765625 555.125 C-245.4765625 376.925 -245.4765625 198.725 -245.4765625 15.125 C-207.5265625 15.125 -169.5765625 15.125 -130.4765625 15.125 C-130.1465625 38.555 -129.8165625 61.985 -129.4765625 86.125 C-127.1665625 80.845 -124.8565625 75.565 -122.4765625 70.125 C-115.11311814 56.24309669 -106.26394016 44.56079927 -95.4765625 33.125 C-94.49236328 32.06152344 -94.49236328 32.06152344 -93.48828125 30.9765625 C-69.40241028 5.78052113 -33.07653707 1.18926875 0 0 Z M-75.4765625 102.125 C-76.55164062 102.61613281 -77.62671875 103.10726562 -78.734375 103.61328125 C-87.3558668 107.8832636 -93.77582539 113.36496433 -100.4765625 120.125 C-101.14429688 120.75921875 -101.81203125 121.3934375 -102.5 122.046875 C-116.1347319 135.990085 -121.03581678 158.43724878 -123.4765625 177.125 C-123.62013184 178.22074341 -123.62013184 178.22074341 -123.76660156 179.33862305 C-124.86207949 189.28528777 -124.7204059 199.31856079 -124.7265625 209.3125 C-124.72723724 210.29410095 -124.72791199 211.2757019 -124.72860718 212.28704834 C-124.695994 242.14792031 -122.72111161 274.26535284 -102.4765625 298.125 C-101.85007812 298.9396875 -101.22359375 299.754375 -100.578125 300.59375 C-86.21630063 317.89200686 -62.41022598 325.09291272 -40.92578125 327.52734375 C-11.60828503 330.04224061 18.46769572 325.50202 41.5859375 306.0625 C62.16893643 286.75368672 71.32694982 256.40088702 72.63116455 228.84925842 C72.68652393 226.49808246 72.71371536 224.14866547 72.7265625 221.796875 C72.73715195 220.50225845 72.73715195 220.50225845 72.74795532 219.18148804 C73.19761458 193.4727147 73.19761458 193.4727147 69.5234375 168.125 C69.32476074 167.29500488 69.12608398 166.46500977 68.92138672 165.60986328 C63.25805384 142.96925834 52.04811781 119.36391551 31.42016602 106.76708984 C0.51226062 89.02389929 -42.98665624 87.06149801 -75.4765625 102.125 Z " fill="#2D0949" transform="translate(1251.4765625,329.875)"/>
<path d="M0 0 C37.95 0 75.9 0 115 0 C115.33 120.45 115.66 240.9 116 365 C123.13367732 356.22008946 130.22505887 347.46794795 137.1875 338.5625 C140.78740081 333.98080807 144.48011744 329.47506737 148.1640625 324.9609375 C151.65530083 320.67548382 155.09818888 316.35670547 158.5 312 C162.9820011 306.25989332 167.55956557 300.60306754 172.1640625 294.9609375 C175.65530083 290.67548382 179.09818888 286.35670547 182.5 282 C186.9820011 276.25989332 191.55956557 270.60306754 196.1640625 264.9609375 C199.65530083 260.67548382 203.09818888 256.35670547 206.5 252 C210.9820011 246.25989332 215.55956557 240.60306754 220.1640625 234.9609375 C223.65530083 230.67548382 227.09818888 226.35670547 230.5 222 C234.9820011 216.25989332 239.55956557 210.60306754 244.1640625 204.9609375 C247.65530179 200.67548263 251.09814072 196.35666894 254.5 192 C259.00823413 186.22747321 263.60208267 180.52885708 268.234375 174.85546875 C268.73839844 174.23800781 269.24242187 173.62054688 269.76171875 172.984375 C270.25836281 172.39515951 270.75500687 171.80594402 271.26670074 171.19887352 C273.06111624 169.00368141 273.06111624 169.00368141 274.58895111 166.46331215 C277.22341758 162.52058919 279.28356555 159.53125147 283.92996216 158.09315109 C287.51484183 157.769089 290.9779039 157.76220679 294.57617188 157.86474609 C295.93693838 157.86757104 297.29772009 157.86597525 298.65847778 157.86032104 C302.33279483 157.8574646 306.00381282 157.91602745 309.67736626 157.98606062 C313.52354838 158.04879926 317.3698158 158.05446524 321.21643066 158.0663147 C328.49132945 158.09733153 335.76471603 158.17930002 343.03895044 158.27980959 C351.32413276 158.39178951 359.60938934 158.44661681 367.89514065 158.49676394 C384.93096685 158.60114275 401.96532328 158.77690342 419 159 C417.173677 162.88732485 414.67815836 165.90501511 411.875 169.125 C410.87395074 170.29076648 409.87395825 171.45744121 408.875 172.625 C408.38386719 173.19863281 407.89273437 173.77226562 407.38671875 174.36328125 C404.83437943 177.37576062 402.39163825 180.47399415 399.9375 183.56640625 C393.45259861 191.71175618 386.77469411 199.70558479 380.15380859 207.74047852 C376.92898012 211.65472608 373.70890886 215.57267871 370.5 219.5 C366.0660312 224.92664838 361.60886462 230.33406281 357.15234375 235.7421875 C353.92805276 239.65590572 350.70843416 243.57325968 347.5 247.5 C343.0660312 252.92664838 338.60886462 258.33406281 334.15234375 263.7421875 C330.92805276 267.65590572 327.70843416 271.57325968 324.5 275.5 C320.0660312 280.92664838 315.60886462 286.33406281 311.15234375 291.7421875 C307.92805276 295.65590572 304.70843416 299.57325968 301.5 303.5 C297.0660312 308.92664838 292.60886462 314.33406281 288.15234375 319.7421875 C284.23418188 324.49814208 280.32323621 329.25972866 276.43359375 334.0390625 C274.44060327 336.4639209 272.43039158 338.87136355 270.41015625 341.2734375 C269.7759375 342.03205078 269.14171875 342.79066406 268.48828125 343.57226562 C267.22911807 345.07789787 265.96498569 346.57939187 264.6953125 348.07617188 C261.78890113 351.5619236 259.31248738 354.56709559 258 359 C258.38220703 359.4626123 258.76441406 359.92522461 259.15820312 360.40185547 C272.04642481 376.00808059 272.04642481 376.00808059 277.890625 383.36328125 C280.67525684 386.84407105 283.49574972 390.29518783 286.3125 393.75 C290.40577602 398.77351263 294.45361575 403.82685316 298.4375 408.9375 C303.65565522 415.62400871 309.04557989 422.16232084 314.44921875 428.69921875 C321.95061967 437.77511432 329.38676658 446.90005089 336.625 456.1875 C340.58884733 461.27344746 344.68989353 466.21633028 348.88208008 471.11499023 C352.60046176 475.47953203 356.14505256 479.96238696 359.6640625 484.48828125 C363.36158745 489.22736253 367.16505782 493.87167526 371 498.5 C375.69238811 504.16508436 380.29736719 509.88351915 384.81420898 515.68920898 C388.48080906 520.38334011 392.2609233 524.97731424 396.0625 529.5625 C413 550.01533019 413 550.01533019 413 552 C395.80597875 552.49246901 378.61418228 552.86176989 361.41470337 553.08805561 C353.42672845 553.19596299 345.44315472 553.34278594 337.45800781 553.58422852 C330.49058471 553.7947967 323.52634839 553.92929827 316.55583191 553.97585839 C312.86918009 554.00305375 309.19163519 554.06595807 305.50793457 554.22033119 C283.28436185 555.11542945 283.28436185 555.11542945 276.25335693 550.00274277 C271.42695417 545.16379845 267.93644524 539.69717185 264.61724854 533.75704002 C261.92003709 529.15890946 258.63300228 525.02173773 255.375 520.8125 C254.13815959 519.16460797 252.90347397 517.51509429 251.671875 515.86328125 C247.46129776 510.26375162 243.15640585 504.73950596 238.84277344 499.21923828 C235.00621893 494.30631104 231.23645733 489.3500102 227.51171875 484.3515625 C224.18491797 479.89818916 220.80814806 475.4827128 217.4375 471.0625 C216.75059082 470.16168701 216.06368164 469.26087402 215.35595703 468.33276367 C213.94168166 466.4784297 212.52729242 464.62418258 211.11279297 462.77001953 C207.74002238 458.34808111 204.37013344 453.9239484 201 449.5 C199.67448395 447.76041302 198.3489631 446.0208297 197.0234375 444.28125 C193.57878156 439.76024435 190.13553793 435.23816586 186.69360352 430.71508789 C185.32880607 428.92376104 183.96214545 427.133852 182.59350586 425.34545898 C179.72129392 421.59091724 176.86224679 417.83292785 174.08984375 414.00390625 C168.82177426 406.7873727 163.68338041 400.89446014 155 398 C147.2329064 397.00239165 141.44233734 398.60514708 135 403 C132.60212606 404.97834883 130.502902 406.99673691 128.43649292 409.32026672 C126 412 126 412 123.41506958 414.31071472 C113.51283489 424.4565717 114.5948678 436.42096815 114.75750351 449.89437294 C114.77068438 450.91840072 114.77068438 450.91840072 114.78413153 451.96311593 C114.8188378 455.48788636 114.79635858 459.01231634 114.78030396 462.53715515 C114.75849913 469.19185273 114.78709253 475.84531112 114.834427 482.4998371 C114.89551906 491.50602117 114.8774777 500.51203907 114.86419678 509.518363 C114.84537289 523.67962615 114.93116525 537.83826302 115 552 C77.05 552 39.1 552 0 552 C0 369.84 0 187.68 0 0 Z " fill="#2D0949" transform="translate(452,187)"/>
<path d="M0 0 C1.09956024 0.00182281 2.19912048 0.00364563 3.33200073 0.00552368 C20.24704638 0.05267331 36.83599927 0.57815158 53.5625 3.3125 C55.109375 3.55395752 55.109375 3.55395752 56.6875 3.80029297 C95.78847183 10.09733995 134.34803244 25.51716212 158.24414062 58.43896484 C178.24842516 86.86727587 181.5625 117.06881506 181.5625 151.3125 C144.6025 151.3125 107.6425 151.3125 69.5625 151.3125 C68.70865496 148.75096488 68.36726884 146.92747017 68.16796875 144.28515625 C66.88465 129.00740303 64.44737307 115.56690384 52.875 104.5625 C39.85439083 94.02432473 20.83931613 91.79184286 4.5625 91.3125 C3.48355469 91.27253906 2.40460938 91.23257813 1.29296875 91.19140625 C-17.2312755 90.83150665 -41.3394673 92.31997719 -55.703125 105.37109375 C-60.87260045 111.09744358 -61.87149819 115.43404522 -61.76953125 123.109375 C-61.02704803 130.27215433 -57.83548365 135.51833743 -52.375 140.125 C-31.90193754 154.45614372 -3.14618132 156.13869254 20.9296875 159.4921875 C73.11036608 166.77792091 137.61941274 177.65212219 171.87353516 222.01025391 C190.40454541 247.83981093 194.59336765 279.3726203 191.1015625 310.41015625 C186.42747137 337.87731529 170.51506718 360.68408314 148.5625 377.3125 C148.02383301 377.72419434 147.48516602 378.13588867 146.93017578 378.56005859 C107.59549005 408.0406408 56.47776975 415.53101944 8.6875 415.5625 C7.09545746 415.56401062 7.09545746 415.56401062 5.47125244 415.56555176 C-47.35530858 415.53176057 -103.32507215 407.74488682 -145.4375 373.3125 C-146.37078125 372.56355469 -147.3040625 371.81460937 -148.265625 371.04296875 C-175.33726083 348.10018304 -187.79064238 311.57721983 -191.4375 277.3125 C-191.7675 272.3625 -192.0975 267.4125 -192.4375 262.3125 C-155.1475 262.3125 -117.8575 262.3125 -79.4375 262.3125 C-77.4575 270.5625 -75.4775 278.8125 -73.4375 287.3125 C-68.01601302 300.40590253 -61.71664285 309.0706227 -48.6640625 315.03515625 C-17.98884493 327.17897725 28.6395649 328.79610611 59.75390625 316 C66.62450218 312.56002816 73.05292816 307.84121553 75.5625 300.3125 C76.23393537 292.88268236 76.24633899 286.37991202 71.5625 280.3125 C51.05980943 257.51246778 10.87842535 255.74368096 -17.5 251.3125 C-65.86908829 243.74506737 -127.81840336 233.58098983 -158.9453125 190.99609375 C-176.60070461 165.40862216 -181.10417079 133.1286875 -176.7890625 102.703125 C-172.87336058 81.44613816 -161.2933836 63.53406688 -146.4375 48.3125 C-145.58285156 47.36503906 -145.58285156 47.36503906 -144.7109375 46.3984375 C-122.67978352 22.55959909 -87.18074324 10.54656001 -56.25 4.5 C-55.25476318 4.30510986 -54.25952637 4.11021973 -53.23413086 3.90942383 C-35.52840466 0.66930021 -17.96670476 -0.06187174 0 0 Z " fill="#2D0949" transform="translate(253.4375,336.6875)"/>
<path d="M0 0 C37.95 0 75.9 0 115 0 C115 130.02 115 260.04 115 394 C77.05 394 39.1 394 0 394 C0 263.98 0 133.96 0 0 Z " fill="#2D0949" transform="translate(878,345)"/>
<path d="M0 0 C37.95 0 75.9 0 115 0 C115 34.65 115 69.3 115 105 C77.05 105 39.1 105 0 105 C0 70.35 0 35.7 0 0 Z " fill="#2D0949" transform="translate(878,186)"/>
<path d="M0 0 C7.4475669 5.43107767 13.06438902 13.57376735 18.81640625 20.6953125 C21.39221384 23.85828422 24.02107575 26.97133611 26.6640625 30.078125 C30.01871624 34.02447025 33.33628554 37.99455157 36.6015625 42.015625 C40.55914438 46.87941525 44.62948696 51.63693731 48.72241211 56.38647461 C52.49213445 60.76999814 56.16389038 65.22416457 59.80078125 69.71875 C61.58950794 71.88296146 63.39951979 74.01107695 65.24609375 76.125 C65.78105469 76.73923828 66.31601563 77.35347656 66.8671875 77.98632812 C67.90762995 79.17702865 68.9528938 80.36354088 70.00390625 81.54492188 C75.5610811 87.91189894 78.90515742 93.21951844 78.546875 101.92578125 C77.75442145 107.41635229 75.529478 110.51923135 71.1015625 113.953125 C66.47822656 116.51071509 62.39168124 117.25608308 57.1640625 116.578125 C51.1612541 114.30462225 45.81469348 110.51911272 40.53125 106.94140625 C39.71269531 106.39293533 38.89414063 105.84446442 38.05078125 105.27937317 C35.37745139 103.48719401 32.7083172 101.68886664 30.0390625 99.890625 C26.26979039 97.36094945 22.49825178 94.83466352 18.7265625 92.30859375 C17.76950409 91.66704346 16.81244568 91.02549316 15.8263855 90.36450195 C9.31423115 86.00349676 2.7799801 81.6776314 -3.7734375 77.37890625 C-4.63935516 76.81083755 -5.50527283 76.24276886 -6.39743042 75.65748596 C-9.72609048 73.47520918 -13.05562647 71.29430091 -16.38824463 69.11807251 C-18.66646971 67.63030671 -20.94269996 66.13952777 -23.21875 64.6484375 C-24.20367432 64.00791191 -24.20367432 64.00791191 -25.20849609 63.35444641 C-41.46477043 52.69162622 -41.46477043 52.69162622 -43.8359375 45.578125 C-44.07421875 43.59765625 -44.07421875 43.59765625 -44.1484375 41.390625 C-44.18582031 40.67519531 -44.22320313 39.95976562 -44.26171875 39.22265625 C-42.97022046 31.20114851 -37.01496876 24.06256237 -32.5456543 17.51318359 C-31.39533204 15.82356362 -30.2589538 14.12511562 -29.12304688 12.42578125 C-28.39021484 11.34683594 -27.65738281 10.26789063 -26.90234375 9.15625 C-26.24177979 8.18075195 -25.58121582 7.20525391 -24.90063477 6.20019531 C-18.42176682 -2.02766821 -9.52756895 -5.22360923 0 0 Z " fill="#2D0949" transform="translate(1656.8359375,149.421875)"/>
<path d="M0 0 C0.92425781 -0.03738281 1.84851562 -0.07476562 2.80078125 -0.11328125 C10.13378885 0.96831256 15.17191356 7.52620521 20.125 12.5625 C20.85009766 13.28824219 21.57519531 14.01398438 22.32226562 14.76171875 C38.70631266 31.27825134 38.70631266 31.27825134 39.0625 39.8125 C38.8230998 45.52937688 37.10435035 48.86591066 33.08203125 52.97265625 C27.02239068 58.05606912 19.50961422 61.13522132 12.4375 64.5625 C10.11702066 65.70133416 7.79844342 66.84397367 5.4800415 67.98703003 C3.95888829 68.73691511 2.43720477 69.48572547 0.91497803 70.23342896 C-4.62771891 72.95926356 -10.11582271 75.77404834 -15.5625 78.6875 C-23.00608894 82.65852925 -30.53355675 86.44171417 -38.09106445 90.19091797 C-45.14183123 93.69912874 -52.12168551 97.32815537 -59.06054688 101.05273438 C-73.10847813 108.54747518 -73.10847813 108.54747518 -80.3125 107.3125 C-85.6050334 105.51940125 -89.25009111 103.08985787 -92.3125 98.3125 C-93.30657938 95.33026186 -93.54290978 93.12374878 -93.625 90 C-93.66238281 89.07574219 -93.69976563 88.15148437 -93.73828125 87.19921875 C-92.88783803 81.43336973 -88.6134735 77.36264086 -84.609375 73.37890625 C-83.71089844 72.48236328 -82.81242187 71.58582031 -81.88671875 70.66210938 C-80.95472656 69.74236328 -80.02273438 68.82261719 -79.0625 67.875 C-78.14597656 66.95912109 -77.22945312 66.04324219 -76.28515625 65.09960938 C-71.69174606 60.53568613 -67.03442889 56.12363083 -62.12207031 51.90600586 C-59.21338871 49.34462367 -56.5197984 46.58329313 -53.8125 43.8125 C-50.4247034 40.38212004 -47.06027911 36.98965525 -43.375 33.875 C-39.46976949 30.5667474 -35.90993396 26.9471618 -32.3125 23.3125 C-28.05982518 19.0201067 -23.80683684 14.80879319 -19.1875 10.90625 C-16.14983289 8.32423296 -13.23138658 5.60804558 -10.29296875 2.9140625 C-7.03871792 0.28241982 -4.05311948 0.10651351 0 0 Z " fill="#2D0949" transform="translate(1889.3125,264.6875)"/>
<path d="M0 0 C8.13533406 4.64256948 12.26565432 14.20043219 16.7958374 22.06460571 C18.66712071 25.31223108 20.55558011 28.54986793 22.44140625 31.7890625 C22.82264648 32.44491837 23.20388672 33.10077423 23.59667969 33.77650452 C27.11411462 39.82143789 30.70285865 45.822199 34.3125 51.8125 C35.52357473 53.82804255 36.73450853 55.84366978 37.9453125 57.859375 C40.09121071 61.43037816 42.23884527 65.00030857 44.38964844 68.56835938 C46.56700092 72.18188558 48.73699724 75.79975596 50.90313721 79.42001343 C51.7496563 80.83211894 52.59852075 82.24282151 53.44989014 83.65200806 C54.64465921 85.63025023 55.83096497 87.61334832 57.015625 89.59765625 C57.54432693 90.46653473 57.54432693 90.46653473 58.08370972 91.35296631 C61.71710624 97.47912761 64.54976733 103.15252332 63.65234375 110.34765625 C61.47833477 116.89344285 58.5427949 120.3139778 52.6328125 123.796875 C52.03121307 124.15718811 51.42961365 124.51750122 50.80978394 124.88873291 C48.90304269 126.02527238 46.98335511 127.13751885 45.0625 128.25 C43.78165439 129.01020829 42.50169723 129.77191559 41.22265625 130.53515625 C23.95305817 140.78105977 23.95305817 140.78105977 13.9375 139.5 C9.1530346 138.02244451 6.34981661 135.24968995 3.96636963 130.87008667 C1.61300632 125.44891877 0.38709486 119.62918696 -1.0390625 113.91015625 C-1.40926723 112.45819662 -1.78038629 111.00646986 -2.15235901 109.55496216 C-3.13989257 105.69034236 -4.11458736 101.82259996 -5.08605576 97.95391464 C-6.08961907 93.96362624 -7.10262522 89.97573552 -8.11450195 85.98754883 C-9.31930803 81.23565668 -10.52241722 76.48335256 -11.71937561 71.72947693 C-13.9414888 62.90539829 -16.198986 54.09195858 -18.50390625 45.2890625 C-19.20717569 42.57796315 -19.90865432 39.86641147 -20.60882568 37.1545105 C-21.0315627 35.52796898 -21.45922847 33.90269935 -21.89215088 32.27883911 C-26.61819444 14.51673353 -26.61819444 14.51673353 -22.375 6.1875 C-16.39037697 -0.76760244 -8.70851776 -3.78703742 0 0 Z " fill="#2D0949" transform="translate(1696.0625,407.5)"/>
<path d="M0 0 C3.45892011 2.78295651 6.02894804 5.23831195 6.94140625 9.69921875 C7.46772226 16.70094807 6.53714011 22.18226326 3.92578125 28.65625 C3.60258911 29.49768555 3.27939697 30.33912109 2.94641113 31.20605469 C1.87681994 33.98086253 0.78431042 36.74601959 -0.30859375 39.51171875 C-1.06844921 41.46832804 -1.82654992 43.42561957 -2.58300781 45.38354492 C-3.78622111 48.49693188 -4.99082481 51.60971359 -6.20159912 54.72016907 C-9.36043391 62.84348123 -12.42834443 70.9982212 -15.46484375 79.16796875 C-16.36415782 81.58101058 -17.26357118 83.9940154 -18.16308594 86.40698242 C-19.47990413 89.94015884 -20.79465646 93.47402052 -22.10217285 97.01065063 C-23.32426141 100.31229888 -24.55743046 103.60961555 -25.79296875 106.90625 C-26.15072388 107.88150635 -26.508479 108.8567627 -26.8770752 109.86157227 C-29.4644484 116.72264814 -32.317941 123.02541118 -37.62109375 128.19921875 C-46.96833126 132.2780133 -56.19304624 129.12300331 -65.1953125 125.67773438 C-66.24017822 125.26648315 -66.24017822 125.26648315 -67.30615234 124.84692383 C-69.44292066 124.00805713 -71.59062465 123.20434973 -73.7421875 122.40429688 C-75.12707092 121.87570786 -76.51121465 121.34517589 -77.89453125 120.8125 C-78.84155411 120.45748161 -78.84155411 120.45748161 -79.80770874 120.09529114 C-84.83620189 118.08991376 -89.28854805 115.36240678 -92.3359375 110.77734375 C-94.23087724 105.52981833 -94.73701193 101.08597448 -93.05859375 95.69921875 C-89.47353746 88.35619348 -84.08492242 82.10371608 -78.95141602 75.8034668 C-74.8678484 70.77681487 -70.9989218 65.61915343 -67.18359375 60.38671875 C-61.97148886 53.24644465 -56.62842595 46.22861323 -51.17724609 39.26953125 C-47.32920898 34.35097129 -43.54471997 29.39076111 -39.80859375 24.38671875 C-39.32036133 23.73445313 -38.83212891 23.0821875 -38.32910156 22.41015625 C-36.43848125 19.88423659 -34.54799967 17.35828538 -32.66699219 14.82519531 C-31.34587678 13.04891363 -30.01576309 11.27971812 -28.68359375 9.51171875 C-27.93335938 8.50753906 -27.183125 7.50335938 -26.41015625 6.46875 C-19.28163394 -1.92680203 -10.14022635 -6.4073916 0 0 Z " fill="#2D0949" transform="translate(1646.05859375,350.30078125)"/>
<path d="M0 0 C2.23046649 0.30711958 4.46099227 0.61380892 6.6915741 0.92008972 C11.34617565 1.56119435 15.99989049 2.2083204 20.65307617 2.85961914 C26.6073743 3.69241307 32.5637966 4.50874442 38.52100086 5.3204546 C43.11940399 5.94908992 47.71647468 6.5870654 52.31320763 7.22778893 C54.50916518 7.53261057 56.70554681 7.83439357 58.90235329 8.13303566 C61.97123971 8.55152492 65.03808078 8.98274075 68.10473633 9.41723633 C69.00514145 9.53736084 69.90554657 9.65748535 70.83323669 9.78125 C77.49810129 10.74620035 83.95496334 11.99979066 88.35546875 17.54296875 C89.07863281 18.4246875 89.07863281 18.4246875 89.81640625 19.32421875 C94.90008564 26.83032254 91.32587417 39.29802366 90.16796875 47.60546875 C90.00232422 48.88099609 89.83667969 50.15652344 89.66601562 51.47070312 C87.23967263 69.11433688 87.23967263 69.11433688 81.60546875 73.54296875 C75.89747699 77.12528606 70.53104426 77.00724966 63.98046875 76.04296875 C57.87768065 74.16388326 52.19169801 71.16982248 46.48046875 68.35546875 C44.83473908 67.56827017 43.18766161 66.78388367 41.53930664 66.00219727 C38.22746904 64.42985308 34.92081207 62.84737247 31.61767578 61.25683594 C25.27058723 58.21217441 18.85118467 55.33840746 12.41796875 52.48046875 C11.28866943 51.97427002 10.15937012 51.46807129 8.99584961 50.9465332 C2.97122705 48.24865811 -3.06554227 45.5815568 -9.11701965 42.94459534 C-12.42145662 41.50352017 -15.72272988 40.05527103 -19.02389526 38.60671997 C-20.62865235 37.90513061 -22.23501007 37.20718957 -23.8430481 36.51315308 C-26.09206641 35.54238927 -28.33544426 34.55951782 -30.578125 33.57421875 C-31.57463577 33.14992332 -31.57463577 33.14992332 -32.59127808 32.71705627 C-38.35314219 30.16106951 -42.74385884 27.29665668 -45.89453125 21.73046875 C-47.66714353 15.9202396 -47.87217096 11.41815465 -45.51953125 5.85546875 C-36.76453672 -9.55696953 -14.20188559 -1.98648927 0 0 Z " fill="#2D0949" transform="translate(1797.01953125,404.95703125)"/>
<path d="M0 0 C4.42681825 -0.07989325 8.85340917 -0.13661954 13.28076172 -0.17660141 C14.93937968 -0.19450196 16.59794014 -0.21918845 18.25634766 -0.25110245 C20.54552673 -0.29352027 22.83352829 -0.31020865 25.12304688 -0.32043457 C26.41629883 -0.33581268 27.70955078 -0.3511908 29.04199219 -0.36703491 C34.34937872 0.34202534 37.37924226 2.77774826 40.85742188 6.72595215 C44.35125257 11.64319535 43.99581752 16.20590905 43.54492188 22.10095215 C41.86192205 27.14995161 38.92119907 30.19343439 34.54492188 33.10095215 C31.4422625 34.50964803 28.25000003 35.51889929 24.99804688 36.5267334 C24.05355682 36.8317276 23.10906677 37.1367218 22.13595581 37.45095825 C19.02631923 38.45160746 15.91083503 39.43254069 12.79492188 40.41345215 C10.6250862 41.10759039 8.45565819 41.80300417 6.28662109 42.49963379 C1.73095789 43.96014087 -2.82724091 45.41231201 -7.38769531 46.85778809 C-14.50122181 49.11303177 -21.60764293 51.39009295 -28.71289062 53.67126465 C-38.38678592 56.77574461 -48.06321008 59.87213948 -57.74343872 62.95681763 C-59.01004837 63.36062149 -59.01004837 63.36062149 -60.30224609 63.77258301 C-61.40292923 64.1232206 -61.40292923 64.1232206 -62.52584839 64.48094177 C-64.17244336 65.01011979 -65.81429357 65.55402396 -67.45507812 66.10095215 C-79.99901354 67.21963645 -79.99901354 67.21963645 -84.88500977 63.62927246 C-91.31725826 57.36805716 -93.62436998 46.30232587 -96.26757812 38.03845215 C-96.67427734 36.82351074 -97.08097656 35.60856934 -97.5 34.35681152 C-99.99098717 26.63265804 -102.07931237 19.79318441 -99.33007812 11.85095215 C-95.68540186 6.50542695 -91.62790011 3.77439302 -85.45507812 2.10095215 C-82.98738415 1.87803328 -80.51022972 1.74985301 -78.03320312 1.69030762 C-77.31308044 1.67050842 -76.59295776 1.65070923 -75.85101318 1.63031006 C-73.46916595 1.56721372 -71.08724744 1.51745929 -68.70507812 1.46813965 C-67.01105113 1.42683201 -65.3170408 1.38483587 -63.62304688 1.3421936 C-60.052191 1.25425753 -56.48126535 1.17253592 -52.91015625 1.09558105 C-48.4575902 0.99946822 -44.00541395 0.89170639 -39.55322266 0.77970505 C-29.07307391 0.51719046 -18.59269553 0.31093154 -8.1105957 0.14457703 C-5.40698411 0.10016206 -2.70350693 0.05035466 0 0 Z " fill="#2D0949" transform="translate(1622.455078125,269.8990478515625)"/>
<path d="M0 0 C5.73793172 -0.2568128 9.80665136 0.26708971 14.4921875 3.76171875 C17.80101278 6.89555807 19.87441151 9.84736458 20.33243942 14.47604847 C20.334478 20.93054926 19.46810676 26.92847379 18.16113281 33.23901367 C17.95297943 34.28261551 17.74482605 35.32621735 17.53036499 36.40144348 C16.84525083 39.82179376 16.14591601 43.23904149 15.4453125 46.65625 C14.96115363 49.04647451 14.47749863 51.43680113 13.99432373 53.82722473 C12.98189277 58.82391144 11.96217891 63.81904359 10.9375 68.81323242 C9.62672734 75.20566803 8.33606484 81.6019736 7.05104446 87.99962902 C6.05776614 92.93169081 5.05292944 97.86134386 4.04470062 102.79036903 C3.56410613 105.14785568 3.08730663 107.50611935 2.61441803 109.8651638 C1.95174658 113.16291128 1.27332889 116.45704153 0.59082031 119.75073242 C0.39948517 120.7197348 0.20815002 121.68873718 0.01101685 122.68710327 C-1.64028573 130.51781267 -3.93646712 136.66988433 -10.8828125 141.30078125 C-15.72395865 142.91449663 -21.06892633 143.27767758 -25.953125 141.58203125 C-29.86425191 139.48255187 -32.68374279 137.12879149 -34.8828125 133.30078125 C-37.61346505 123.19182591 -37.91992647 112.3092788 -38.828125 101.91796875 C-39.00439883 99.93415316 -39.18090666 97.95035836 -39.3576355 95.96658325 C-39.72577788 91.81981645 -40.09001453 87.67272887 -40.45166016 83.52539062 C-40.9115473 78.25675406 -41.3827783 72.98920368 -41.85722542 67.72186089 C-42.22453128 63.62634602 -42.58483348 59.5302362 -42.94323349 55.43393326 C-43.11393746 53.49401564 -43.28691384 51.55429638 -43.46237564 49.61480331 C-44.29540223 40.37340707 -45.04444194 31.13201789 -45.23779297 21.85205078 C-45.26904266 20.53496124 -45.30029236 19.2178717 -45.33248901 17.86087036 C-44.67856959 12.68379003 -42.26008147 9.71740076 -38.6953125 6.05078125 C-28.17485915 -0.49527862 -11.9851759 0.92842912 0 0 Z " fill="#2D0949" transform="translate(1809.8828125,153.69921875)"/>
</svg>
